<svg width="24" height="24" viewBox="0 0 24 24" fill="none" xmlns="http://www.w3.org/2000/svg">
  <!-- Anchor symbol for maritime theme -->
  <path d="M12 2C10.9 2 10 2.9 10 4C10 4.74 10.4 5.39 11 5.73V7H13V5.73C13.6 5.39 14 4.74 14 4C14 2.9 13.1 2 12 2Z" fill="currentColor"/>
  <path d="M12 8C11.45 8 11 8.45 11 9V11H7C6.45 11 6 11.45 6 12C6 12.55 6.45 13 7 13H11V20C11 20.55 11.45 21 12 21C12.55 21 13 20.55 13 20V13H17C17.55 13 18 12.55 18 12C18 11.45 17.55 11 17 11H13V9C13 8.45 12.55 8 12 8Z" fill="currentColor"/>
  <!-- Curved hooks on bottom -->
  <path d="M8 15C6.34 15 5 16.34 5 18C5 19.1 5.4 20.1 6 20.82" stroke="currentColor" stroke-width="1.5" stroke-linecap="round" fill="none"/>
  <path d="M16 15C17.66 15 19 16.34 19 18C19 19.1 18.6 20.1 18 20.82" stroke="currentColor" stroke-width="1.5" stroke-linecap="round" fill="none"/>
</svg>
